<svg xmlns="http://www.w3.org/2000/svg" viewBox="0 0 108.66 97"><defs><style>.cls-1{fill:#fff}</style></defs><g id="Слой_2" data-name="Слой 2"><g id="Black_Friday_icons" data-name="Black Friday icons"><path class="cls-1" d="M106.94,16.76a7.12,7.12,0,0,0-5.42-2.49H32.84a2,2,0,0,0,0,4h68.68a3.14,3.14,0,0,1,3.11,3.56L98,50.83,98,51a5.05,5.05,0,0,1-5,4.24H46.2a2,2,0,0,0,0,4H93.06A9,9,0,0,0,102,51.65l6.59-29,0-.13A7.14,7.14,0,0,0,106.94,16.76Z"/><path class="cls-1" d="M43.05,78.2a9.4,9.4,0,1,0,9.4,9.4A9.41,9.41,0,0,0,43.05,78.2Zm0,14.8a5.4,5.4,0,1,1,5.4-5.4A5.4,5.4,0,0,1,43.05,93Z"/><path class="cls-1" d="M84.83,78.2a9.4,9.4,0,1,0,9.4,9.4A9.41,9.41,0,0,0,84.83,78.2Zm0,14.8a5.4,5.4,0,1,1,5.4-5.4A5.4,5.4,0,0,1,84.83,93Z"/><path class="cls-1" d="M92.23,69h-56L31,48.51,20.85,4.42A5.86,5.86,0,0,0,15.17,0H2A2,2,0,0,0,2,4H15.17A1.85,1.85,0,0,1,17,5.36l9.57,41.5a1.89,1.89,0,0,0,.06.47l.54,2.11v.11l5.6,22A2,2,0,0,0,34.69,73H92.23a2,2,0,0,0,0-4Z"/></g></g></svg>