<svg xmlns="http://www.w3.org/2000/svg" viewBox="0 0 110.13 93"><defs><style>.cls-1{fill:#fff;}</style></defs><title>Ресурс 1</title><g id="Слой_2" data-name="Слой 2"><g id="Black_Friday_icons" data-name="Black Friday icons"><g id="_x3C__руппа_x3E__1_" data-name="_x3C_√руппа_x3E__1_"><path class="cls-1" d="M37.66,33.92a2.06,2.06,0,0,1-.76-.15,2,2,0,0,1-1.06-2.59l12.53-30A2,2,0,1,1,52,2.74l-12.53,30A2,2,0,0,1,37.66,33.92Z"/><path class="cls-1" d="M72.47,33.92a2,2,0,0,1-1.83-1.21l-12.52-30a2,2,0,1,1,3.65-1.52l12.52,30a2,2,0,0,1-1.06,2.59A2.06,2.06,0,0,1,72.47,33.92Z"/><path class="cls-1" d="M34.86,78a2,2,0,0,1-2-2l-2-18.55a2,2,0,1,1,4,0l2,18.55A2,2,0,0,1,34.86,78Z"/><path class="cls-1" d="M55.07,78a2,2,0,0,1-2-2V57.49a2,2,0,1,1,3.95,0V76A2,2,0,0,1,55.07,78Z"/><path class="cls-1" d="M75.27,78a2,2,0,0,1-2-2l2-18.55a2,2,0,0,1,4,0L77.25,76A2,2,0,0,1,75.27,78Z"/><polygon class="cls-1" points="60.69 24.12 49.45 24.12 47.79 28.08 62.34 28.08 60.69 24.12"/><path class="cls-1" d="M105.19,24.12H77.71l1.65,4h25.83a1,1,0,0,1,1,1V39.35a1,1,0,0,1-1,1H5a1,1,0,0,1-1-1V29.07a1,1,0,0,1,1-1H30.77l1.65-4H5A5,5,0,0,0,0,29.07V39.35A5,5,0,0,0,5,44.3H105.19a5,5,0,0,0,4.94-4.95V29.07A5,5,0,0,0,105.19,24.12Z"/><path class="cls-1" d="M95.93,44.3a.67.67,0,0,1,.5.22.68.68,0,0,1,.16.52L91.66,87.85A1.34,1.34,0,0,1,90.32,89H19.81a1.34,1.34,0,0,1-1.34-1.19L13.54,45a.66.66,0,0,1,.66-.74H9.64a4.8,4.8,0,0,0,0,1.2l4.93,42.8A5.3,5.3,0,0,0,19.81,93H90.32a5.29,5.29,0,0,0,5.27-4.7l4.93-42.8a4.37,4.37,0,0,0,0-1.2Z"/></g></g></g></svg>