<svg xmlns="http://www.w3.org/2000/svg" fill='#fff' viewBox="0 0 25.39 21.7"><defs><style>.cls-1{fill:#ffffff;}</style></defs><title>write</title><g id="Слой_2" data-name="Слой 2"><g id="Layer_3" data-name="Layer 3"><path class="cls-1" d="M4.23,18.68q-.38,0-.75,0a1,1,0,0,1-.37-1.89,5.31,5.31,0,0,0,1.75-1.37A8.14,8.14,0,0,1,0,8.32C0,3.73,4.62,0,10.29,0S20.58,3.73,20.58,8.32,16,16.65,10.29,16.65H9.94a8.39,8.39,0,0,1-5.71,2ZM10.29,2C5.72,2,2,4.84,2,8.32,2,10.71,3.83,12.94,6.67,14a1,1,0,0,1,.58.57,1,1,0,0,1,0,.81l0,.1c-.06.12-.11.23-.18.35s-.19.3-.29.44a5.33,5.33,0,0,0,2.14-1.35,1.05,1.05,0,0,1,.78-.3l.67,0c4.57,0,8.29-2.84,8.29-6.33S14.86,2,10.29,2Z"/><path class="cls-1" d="M21.84,21.7a6.4,6.4,0,0,1-3.53-1l-.19,0c-3.89.71-7.7-1.06-9-4.2a1,1,0,0,1,1.84-.79c1,2.29,3.87,3.56,6.86,3a4.21,4.21,0,0,0,.51-.12,1,1,0,0,1,.87.19,3.87,3.87,0,0,0,1.27.67h0c-.08-.1-.14-.19-.2-.28a1.11,1.11,0,0,1-.17-.81,1,1,0,0,1,.42-.68,5.53,5.53,0,0,0,2.87-5.37,4.84,4.84,0,0,0-3.15-3.68A1,1,0,0,1,21,6.81,6.9,6.9,0,0,1,25.32,12a7.32,7.32,0,0,1-2.85,6.71,3.8,3.8,0,0,0,1.39.78,1,1,0,0,1,.7,1,1,1,0,0,1-.75.94,8,8,0,0,1-2,.26Z"/><path class="cls-1" d="M6.32,7.15a1.31,1.31,0,1,0,1.3,1.31,1.31,1.31,0,0,0-1.3-1.31Z"/><path class="cls-1" d="M10.32,7.15a1.31,1.31,0,1,0,1.3,1.31,1.31,1.31,0,0,0-1.3-1.31Z"/><path class="cls-1" d="M14.32,7.15a1.31,1.31,0,1,0,1.3,1.31,1.31,1.31,0,0,0-1.3-1.31Z"/></g></g></svg>