<svg 
 xmlns="http://www.w3.org/2000/svg"
 xmlns:xlink="http://www.w3.org/1999/xlink"
 width="79px" height="62px">
<path fill-rule="evenodd"  fill="rgb(58, 71, 95)"
 d="M67.352,19.899 C63.966,24.746 62.003,29.361 61.455,33.748 C61.635,33.748 62.183,33.705 63.100,33.612 C64.013,33.522 64.652,33.475 65.020,33.475 C68.860,33.475 72.057,34.803 74.620,37.452 C77.179,40.103 78.460,43.441 78.460,47.461 C78.460,51.485 77.042,54.912 74.209,57.745 C71.372,60.582 67.943,61.996 63.923,61.996 C59.166,61.996 55.099,60.123 51.718,56.374 C48.332,52.629 46.643,47.555 46.643,41.153 C46.643,33.109 48.700,25.431 52.815,18.117 C56.929,10.807 62.277,4.773 68.860,0.017 L79.009,8.244 C74.620,11.170 70.733,15.057 67.352,19.899 ZM20.725,19.899 C17.339,24.746 15.377,29.361 14.828,33.748 C15.008,33.748 15.557,33.705 16.474,33.612 C17.386,33.522 18.025,33.475 18.394,33.475 C22.233,33.475 25.431,34.803 27.993,37.452 C30.552,40.103 31.833,43.441 31.833,47.461 C31.833,51.485 30.415,54.912 27.582,57.745 C24.745,60.582 21.316,61.996 17.296,61.996 C12.539,61.996 8.472,60.123 5.091,56.374 C1.705,52.629 0.017,47.555 0.017,41.153 C0.017,33.109 2.074,25.431 6.188,18.117 C10.302,10.807 15.651,4.773 22.233,0.017 L32.382,8.244 C27.993,11.170 24.106,15.057 20.725,19.899 Z"/>
</svg>