<svg xmlns="http://www.w3.org/2000/svg" viewBox="0 0 23.55 23.55"><defs><style>.cls-1{fill:#ffe100}</style></defs><g id="Слой_2" data-name="Слой 2"><g id="Layer_3" data-name="Layer 3"><path class="cls-1" d="M11.75,8.27A1.08,1.08,0,0,1,11,8a.94.94,0,0,1-.31-.74A.92.92,0,0,1,11,6.56a1.08,1.08,0,0,1,1.42,0,.93.93,0,0,1,.31.74.91.91,0,0,1-.3.73A1,1,0,0,1,11.75,8.27Zm1,2.09v5.88a1.33,1.33,0,0,1-.29.92,1,1,0,0,1-.74.31.94.94,0,0,1-.73-.32,1.37,1.37,0,0,1-.28-.91V10.42a1.31,1.31,0,0,1,.28-.9.93.93,0,0,1,.73-.31,1,1,0,0,1,.74.31A1.17,1.17,0,0,1,12.76,10.36Z"/><path class="cls-1" d="M11.77,23.55A11.78,11.78,0,0,1,0,11.78,11.78,11.78,0,1,1,11.77,23.55ZM11.78,2A9.78,9.78,0,0,0,4.86,18.69a9.79,9.79,0,0,0,13.83,0A9.78,9.78,0,0,0,11.78,2Z"/></g></g></svg>