<svg 
 xmlns="http://www.w3.org/2000/svg"
 xmlns:xlink="http://www.w3.org/1999/xlink"
 width="18px" height="18px">
<path fill-rule="evenodd"  fill="rgb(132, 132, 132)"
 d="M17.323,1.565 C17.323,1.292 17.231,1.070 17.045,0.896 C16.860,0.724 16.643,0.637 16.396,0.637 L1.626,0.637 C1.354,0.637 1.131,0.724 0.958,0.896 C0.785,1.070 0.699,1.292 0.699,1.565 L0.699,16.335 C0.699,16.582 0.785,16.798 0.958,16.983 C1.131,17.169 1.354,17.262 1.626,17.262 L9.568,17.262 L9.568,10.805 L7.415,10.805 L7.415,8.319 L9.568,8.319 L9.568,6.463 C9.568,5.399 9.864,4.583 10.458,4.014 C11.052,3.445 11.831,3.160 12.796,3.160 C13.563,3.160 14.206,3.185 14.726,3.235 L14.726,5.498 L13.390,5.498 C12.920,5.498 12.586,5.610 12.388,5.832 C12.239,6.005 12.165,6.302 12.165,6.722 L12.165,8.319 L14.652,8.319 L14.318,10.805 L12.165,10.805 L12.165,17.262 L16.396,17.262 C16.668,17.262 16.891,17.169 17.064,16.983 C17.237,16.798 17.323,16.582 17.323,16.335 L17.323,1.565 Z"/>
</svg>