<svg 
 xmlns="http://www.w3.org/2000/svg"
 xmlns:xlink="http://www.w3.org/1999/xlink"
 width="19px" height="19px">
<path fill-rule="evenodd"  fill="rgb(132, 132, 132)"
 d="M11.935,5.459 C12.640,5.871 13.198,6.430 13.611,7.134 C14.023,7.840 14.230,8.606 14.230,9.430 C14.230,10.255 14.023,11.021 13.611,11.725 C13.198,12.431 12.640,12.990 11.935,13.402 C11.229,13.815 10.464,14.021 9.640,14.021 C8.815,14.021 8.049,13.815 7.345,13.402 C6.639,12.990 6.080,12.431 5.668,11.725 C5.255,11.021 5.049,10.255 5.049,9.430 C5.049,8.606 5.255,7.840 5.668,7.134 C6.080,6.430 6.639,5.871 7.345,5.459 C8.049,5.046 8.815,4.840 9.640,4.840 C10.464,4.840 11.229,5.046 11.935,5.459 ZM11.755,11.545 C12.340,10.961 12.633,10.255 12.633,9.430 C12.633,8.606 12.340,7.901 11.755,7.315 C11.170,6.730 10.464,6.437 9.640,6.437 C8.815,6.437 8.109,6.730 7.524,7.315 C6.939,7.901 6.646,8.606 6.646,9.430 C6.646,10.255 6.939,10.961 7.524,11.545 C8.109,12.132 8.815,12.424 9.640,12.424 C10.464,12.424 11.170,12.132 11.755,11.545 ZM15.188,3.881 C14.975,3.668 14.722,3.562 14.429,3.562 C14.136,3.562 13.884,3.668 13.671,3.881 C13.458,4.096 13.352,4.348 13.352,4.640 C13.352,4.933 13.458,5.186 13.671,5.398 C13.884,5.613 14.136,5.718 14.429,5.718 C14.722,5.718 14.968,5.613 15.168,5.398 C15.367,5.186 15.480,4.933 15.507,4.640 C15.507,4.348 15.401,4.096 15.188,3.881 ZM18.581,9.430 C18.581,11.161 18.561,12.404 18.521,13.162 C18.481,13.920 18.367,14.579 18.181,15.138 C17.942,15.803 17.576,16.382 17.084,16.875 C16.591,17.366 16.012,17.732 15.347,17.972 C14.789,18.157 14.130,18.271 13.372,18.312 C12.613,18.351 11.369,18.371 9.640,18.371 C7.910,18.371 6.666,18.351 5.908,18.312 C5.149,18.271 4.491,18.145 3.932,17.933 C3.266,17.720 2.688,17.366 2.196,16.875 C1.703,16.382 1.337,15.803 1.098,15.138 C0.911,14.579 0.798,13.920 0.759,13.162 C0.719,12.404 0.699,11.161 0.699,9.430 C0.699,7.701 0.719,6.457 0.759,5.698 C0.798,4.939 0.911,4.282 1.098,3.722 C1.337,3.058 1.703,2.479 2.196,1.986 C2.688,1.493 3.266,1.127 3.932,0.888 C4.491,0.703 5.149,0.588 5.908,0.548 C6.666,0.510 7.910,0.490 9.640,0.490 C11.369,0.490 12.613,0.510 13.372,0.548 C14.130,0.588 14.789,0.703 15.347,0.888 C16.012,1.127 16.591,1.493 17.084,1.986 C17.576,2.479 17.942,3.058 18.181,3.722 C18.367,4.282 18.487,4.946 18.541,5.718 C18.567,6.463 18.581,7.701 18.581,9.430 ZM16.944,12.543 C16.970,11.959 16.984,11.134 16.984,10.069 L16.984,8.792 C16.984,7.701 16.970,6.876 16.944,6.316 C16.890,5.305 16.784,4.587 16.625,4.162 C16.306,3.337 15.733,2.764 14.908,2.446 C14.482,2.285 13.764,2.180 12.753,2.126 C12.167,2.099 11.342,2.086 10.278,2.086 L9.001,2.086 C7.936,2.086 7.111,2.099 6.526,2.126 C5.542,2.180 4.823,2.285 4.371,2.446 C3.546,2.764 2.974,3.337 2.655,4.162 C2.495,4.587 2.388,5.305 2.335,6.316 C2.308,6.903 2.295,7.728 2.295,8.792 L2.295,10.069 C2.295,11.134 2.308,11.959 2.335,12.543 C2.388,13.529 2.495,14.247 2.655,14.699 C3.000,15.524 3.573,16.096 4.371,16.416 C4.823,16.575 5.542,16.682 6.526,16.734 C7.111,16.762 7.936,16.775 9.001,16.775 L10.278,16.775 C11.369,16.775 12.194,16.762 12.753,16.734 C13.764,16.682 14.482,16.575 14.908,16.416 C15.733,16.070 16.306,15.498 16.625,14.699 C16.784,14.247 16.890,13.529 16.944,12.543 L16.944,12.543 Z"/>
</svg>