<svg 
 xmlns="http://www.w3.org/2000/svg"
 xmlns:xlink="http://www.w3.org/1999/xlink"
 width="25px" height="15px">
<path fill-rule="evenodd"  fill="rgb(132, 132, 132)"
 d="M24.440,1.305 C24.349,1.762 23.983,2.525 23.342,3.593 C22.885,4.355 22.336,5.240 21.695,6.246 C21.146,7.039 20.857,7.451 20.826,7.481 C20.643,7.755 20.552,7.969 20.552,8.122 C20.552,8.274 20.643,8.457 20.826,8.670 L21.238,9.128 C23.434,11.385 24.669,12.940 24.943,13.795 C25.035,14.161 24.997,14.443 24.829,14.641 C24.661,14.839 24.395,14.938 24.029,14.938 L21.329,14.938 C20.994,14.938 20.689,14.831 20.414,14.618 C20.231,14.496 19.903,14.168 19.431,13.634 C18.958,13.101 18.539,12.651 18.173,12.285 C16.953,11.126 16.053,10.546 15.473,10.546 C15.229,10.546 15.054,10.592 14.947,10.683 C14.841,10.775 14.787,10.974 14.787,11.278 C14.757,11.492 14.742,11.964 14.742,12.696 L14.742,13.886 C14.772,14.252 14.681,14.511 14.467,14.663 C14.192,14.846 13.643,14.938 12.820,14.938 C11.387,14.938 9.938,14.511 8.474,13.657 C7.010,12.803 5.729,11.583 4.631,9.997 C3.594,8.594 2.725,7.176 2.023,5.743 C1.474,4.645 1.032,3.623 0.697,2.677 C0.483,1.915 0.376,1.381 0.376,1.076 C0.376,0.558 0.681,0.299 1.291,0.299 L3.990,0.299 C4.326,0.299 4.578,0.375 4.745,0.527 C4.913,0.680 5.058,0.954 5.180,1.351 C5.607,2.571 6.125,3.760 6.735,4.919 C7.284,5.986 7.833,6.856 8.382,7.527 C8.931,8.198 9.358,8.533 9.663,8.533 C9.846,8.533 9.976,8.465 10.052,8.327 C10.129,8.190 10.167,7.923 10.167,7.527 L10.167,3.547 C10.136,3.059 10.029,2.632 9.846,2.266 C9.755,2.052 9.602,1.816 9.389,1.557 C9.175,1.297 9.069,1.084 9.069,0.916 C9.069,0.748 9.137,0.603 9.274,0.481 C9.412,0.359 9.572,0.299 9.755,0.299 L14.009,0.299 C14.284,0.299 14.475,0.375 14.581,0.527 C14.688,0.680 14.742,0.939 14.742,1.305 L14.742,6.612 C14.742,6.886 14.787,7.085 14.879,7.206 C14.970,7.328 15.085,7.390 15.222,7.390 C15.359,7.390 15.519,7.337 15.702,7.230 C15.885,7.123 16.129,6.902 16.434,6.566 C17.014,5.925 17.593,5.133 18.173,4.188 C18.569,3.517 18.950,2.785 19.316,1.991 L19.774,1.076 C19.987,0.558 20.369,0.299 20.918,0.299 L23.617,0.299 C24.349,0.299 24.623,0.634 24.440,1.305 Z"/>
</svg>