<svg 
 xmlns="http://www.w3.org/2000/svg"
 xmlns:xlink="http://www.w3.org/1999/xlink"
 width="23px" height="17px">
<path fill-rule="evenodd"  fill="rgb(132, 132, 132)"
 d="M22.348,6.419 L22.388,8.426 L22.348,10.434 C22.268,11.933 22.134,13.045 21.947,13.767 C21.812,14.222 21.571,14.624 21.224,14.972 C20.876,15.319 20.461,15.560 19.979,15.694 C19.283,15.882 17.650,16.015 15.080,16.096 L11.426,16.136 L7.772,16.096 C5.202,16.015 3.569,15.882 2.873,15.694 C2.391,15.560 1.975,15.319 1.628,14.972 C1.280,14.624 1.039,14.222 0.905,13.767 C0.717,13.045 0.584,11.933 0.503,10.434 L0.463,8.426 C0.463,7.838 0.477,7.168 0.503,6.419 C0.584,4.946 0.717,3.849 0.905,3.126 C1.039,2.643 1.280,2.230 1.628,1.881 C1.975,1.533 2.391,1.292 2.873,1.158 C3.569,0.971 5.202,0.837 7.772,0.757 L11.426,0.717 L15.080,0.757 C17.650,0.837 19.283,0.971 19.979,1.158 C20.461,1.292 20.876,1.533 21.224,1.881 C21.571,2.230 21.812,2.643 21.947,3.126 C22.134,3.849 22.268,4.946 22.348,6.419 L22.348,6.419 ZM14.919,8.426 L9.177,5.175 L9.177,11.719 L14.919,8.426 Z"/>
</svg>